<?xml version="1.0" encoding="UTF-8" standalone="no"?>
<!-- Created with Inkscape (http://www.inkscape.org/) -->

<svg
   version="1.1"
   id="svg639"
   width="586"
   height="853"
   viewBox="0 0 586 853"
   sodipodi:docname="backgroundWhoisthisguy.svg"
   inkscape:version="1.1.1 (3bf5ae0d25, 2021-09-20)"
   xmlns:inkscape="http://www.inkscape.org/namespaces/inkscape"
   xmlns:sodipodi="http://sodipodi.sourceforge.net/DTD/sodipodi-0.dtd"
   xmlns="http://www.w3.org/2000/svg"
   xmlns:svg="http://www.w3.org/2000/svg">
  <defs
     id="defs643" />
  <sodipodi:namedview
     id="namedview641"
     pagecolor="#ffffff"
     bordercolor="#666666"
     borderopacity="1.0"
     inkscape:pageshadow="2"
     inkscape:pageopacity="0.0"
     inkscape:pagecheckerboard="0"
     showgrid="false"
     inkscape:zoom="0.97538101"
     inkscape:cx="292.70613"
     inkscape:cy="427.01262"
     inkscape:window-width="1920"
     inkscape:window-height="1017"
     inkscape:window-x="-8"
     inkscape:window-y="-8"
     inkscape:window-maximized="1"
     inkscape:current-layer="g645" />
  <g
     inkscape:groupmode="layer"
     inkscape:label="Image"
     id="g645">
    <path
       style="fill:#4b4d4c;stroke:none"
       d="M 4.1009654,-3.8461536e-7 C 4.1009654,30.4591 18.578665,60.8426 29.651865,89 c 15.614,39.704 29.0212,80.223 44.4491,120 h 4 l -20,-62 -3,-3 3,-2 c 12.0663,29.02 19.978,59.688 31.5995,89 3.7595,9.482 13.159805,26.056 9.4005,36 7.167005,2.145 9.021005,14.949 12.000005,21 l 9,-1 v -1 l -7,-5 c 2.826,-11.478 11.278,-7.364 19.985,-5.438 13.898,3.073 29.071,10.048 43.015,11.438 l -3,7 c -1.115,-6.698 -10.154,-7.733 -16,-8 v 5 l 12,4 v 1 l -4,-1 c 1.671,5.303 3.504,8.066 0,13 v -2 l -4,4 h 4 v 1 l -19,3 h -1 l -6,-1 -1,-3 -17,-4 1,-2 -4,-1 2,-5 -16,-13 c 1.983,9.58 5.567,24.318 13,31 l -5,-17 c 5.592,4.935 12.667,26.932 10,34 4.059,2.228 5.509,5.48 6,10 h -1 l -2,-6 h -1 c 2.014,10.682 15.147,16.013 25,9 l -17,-5 v -2 l 30,4 v 5 h -13 v 1 l 29,2 -1,-20 h 1 l 7,23 -54.999,-4.086 L 4.1009654,344 v 376 97 c 0,7.693 -3.65860002,28.289 1.17901,34.397 3.13008,3.952 17.1590896,1.603 21.8209896,1.603 h 66 v -4 l 3,1 -2,2 v 1 H 263.10097 l -4,-6 17,5.787 23.576,-0.599 40.424,0.812 c -9.647,-13.402 -26.519,-6.716 -40.134,-10.361 -5.528,-1.48 -5.694,-5.724 -9.866,-8.639 l 7,1 -3,1 v 1 c 11.129,4.714 25.295,-1.497 37,-2 -3.348,-5.365 -11.212,-5.979 -17,-5 l -5,-6 -5,1 2,3 -9,-3 1,-3 -9,1 v -1 c 24.321,-3.074 46.366,10.818 70,14 v 1 c -8.107,-0.348 -20.97,-0.82 -26,7 l 14,5 -1,3 3,-1 12,2 h 31 127 c -8.371,-13.383 -21.219,-25.455 -31.975,-37 -11.865,-12.735 -30.865,-28.182 -38.279,-44 -1.874,-4 1.06,-20.045 7.273,-18.963 4.202,0.732 8.145,6.132 10.981,8.963 8.538,8.524 16.758,17.281 25.09,25.989 14.64,15.303 30.102,29.846 44.895,45.011 5.813,5.958 11.953,16.424 20.015,19.397 9.007,3.32 23.417,0.603 33,0.603 v -55 l -0.603,-23.907 -10.397,-9.209 -27,-19.733 -91.981,-66.576 -13.019,-19.575 -5,-6 4,4 v 1 l -8,-5 c 5.696,-1.227 -1.237,-7.737 -5,-4 h -1 l -4,-4 -1,3 h -1 l -2,-5 -15,7 h -1 l -3,-4 1,3 -6,-5 13,-6 v -5 h -1 c -3.673,3.438 -12.573,-0.111 -17,-1 v -1 l 17,-2 -4,-6 3,1 c 4.384,-9.507 15.223,-10.689 24,-14 l -2,8 7,-1 3,2 -2,-18 -36,14 21,-15 c 2.343,0.275 3.772,0.186 6,-0.814 1.587,-0.712 3.252,-1.575 4.49,-2.823 9.91,-9.996 -13.324,-20.838 -12.49,-8.363 5.717,-4.106 13.677,1.008 6.771,5.188 -2.603,1.574 -5.952,-0.181 -8.771,-0.016 -5.571,0.327 -11.502,2.694 -17,3.828 8.258,-8.088 25.368,-16.791 27,-29 l -12,7 c 1.587,-6.598 10.362,-10.622 16,-14 l -2,-5 5,-5 -4,-1 2,4 -7,-4 3,-3 v -1 l -3,-4 4,2 c 0,-4.647 0.561,-9.662 -1.417,-14 -2.124,-4.655 -6.796,-8.025 -8.149,-13 -3.442,-12.657 -2.136,-31.698 -2.42,-45.001 -0.659,-30.821 -0.757,-62.077 10e-4,-92.999 0.361,-14.756 3.146,-33.661 -1.015,-48 4.844,-4.233 0.593,-16.938 1.17,-23 2.432,-25.558 -6.42,-52.631 -0.17,-78 -1.774,0 -1.871,-9.913 -2,-13 -0.567,-13.613 0,-27.374 0,-41 0,-20.352 3.143,-40.423 2,-61 -1.574,-28.3312 -1.749,-57.7227 1,-86 0.992,-10.2014 5.947,-19.2477404 8,-29.00000038461542 h -44 V 4.9999996 h -1 V -3.8461542e-7 h -2 L 383.25797,14 l 8.828,34 1.015,289 h -1 c -1.144,-5.897 -1.78,-12.557 -4.659,-17.911 -5.996,-11.149 -18.782,-11.538 -29.341,-15.089 l 1,-2 -4,-6 5,7 4,-1 v -1 c -5.036,-1.205 -6.961,-5.007 -7,-10 h -1 v 2 h -1 l -1,-6 h -1 l 1,6 h -1 l -3,-4 2,-1 h -3 l -2,-5 h -1 l 2,6 -3,-1 1,-3 -7,-3 v -3 l 5,2 v -1 l -3,-1 -3,-7 2,3 -3,-3 -6,-3 5,6 -8,-7 -2,-1 h -2 v 2 h -1 l -3,-4 h -1 l -1,2 -11,-5 h -1 c -3.351,2.962 -5.876,1.929 -10,1 v -1 l 5,-1 v -1 c -6.927,-0.317 -14.739,-4.386 -21,0 -4.782,-3.623 -12.37,-1.686 -18,-1 l 1,-2 h -19 v -1 c 9.253,-2.996 13.154,-29.302 16.076,-38 9.625,-28.66 19.698,-57.213 28.952,-86 3.793,-11.8 10.679,-24.471 10.972,-37 8.891,9.747 5.717,14.376 4,26 l -3,-2 -29.018,84.982 -14.982,30.018 5,-2 -8,23 h 7 c 1.401,-8.408 5.784,-16.28 9,-24 6.735,-16.165 12.264,-32.833 19,-49 2.015,-4.835 6.873,-22.032 11,-21 v -5 h 1 l 1.002,21 -8.152,20 -24.85,59 19.787,-0.198 9.074,-14.802 12.501,-24 0.638,-25 c -4.859,-0.371 -6.818,-2.029 -6,-7 l 1,3 h 1 l 3.87,-13 -1.87,-27 -5,2 c 2.894,-8.099 6.851,-15.902 9.573,-24 1.367,-4.068 3.22,-10.855 7.442,-12.944 2.932,-1.451 5.488,2.491 8.547,1.283 2.767,-1.093 1.574,-3.697 0.438,-5.339 v -1 c 4.223,-4.861 1.552,-9.2953 1.093,-15 -0.725,-9.0269 0.907,-17.983 0.907,-27 h 5 l 1,43 1.83,93 1.17,27 h 1 c 0,-27.231 0.052,-54.788 -1.14,-82 -1.192,-27.237 -3.866,-57.0352 1.14,-84 h 1 c 0.778,4.6621 7.986,7.73 10.868,2.5663 1.567,-2.8078 -1.188,-7.6975 -1.868,-10.5663 l 5,2 c 2.118,-6.1295 -1.353,-9.9885 -1.895,-16 -0.853,-9.4578 3.272,-27.8681 11.895,-33.0000004 V -3.8461542e-7 h -18 -1 L 338.28997,30 l -3.782,12.8912 7.593,6.1088 -10,-4 -4,8 -9,-10 4,-12 h 1 l 3,3 c -4.116,-10.4969 3.671,-23.7684 7,-34.00000038461542 h -46 c -3.933,0 -13.02,-1.69122001538458 -15.86,1.60338998461542 -2.498,2.8974 -2.616,8.7789104 -3.34,12.3966104 -2.11,10.5464 -2.694,29.8372 -9.8,38 v 1 l -1.35,17 -8.036,38 -24.038,114 -10.576,48 7,-4 v 1 c -8.47,4.254 -12.267,12.139 -18.326,18.911 -12.877,14.393 -24.66,19.095 -24.674,40.089 l -3,-4 2,1 v -1 l 2.83,-44 2.131,-54 9.039,-224.00000038461541 h -3 L 184.10097,110 h -2 l 2,-110.00000038461541 h -29 V 0.99999962 l 11,2.99999998 -1,4 c -22.348,-6.76752 -51.538,-13.93518 -75.000005,-6.99999998 V 1.9999996 l 20.000005,5.36035 58,19.6396504 c -1.39,2.3162 -3.128,2.3745 0,3 v 1 l -61,-18.7091 -36.000005,-11.96607138 -47,-0.32482900461543 V 0.99999962 C 62.070165,8.1538696 99.645565,23.0444 136.10097,35.6559 c 9.512,3.2905 31.802,6.3527 37,15.3441 -35.021,-6.5984 -68.949,-21.123 -103.000005,-31.5648 -12.3595,-3.7901 -34.8508,-7.249 -44,-16.4352004 l -5,1 2,-3.99999998461542 h -12 L 34.100965,73 h -1 L 8.1009654,-3.8461542e-7 h -4 M 84.100965,0.99999962 l 1,0.99999998 -1,-0.99999998 m 66.000005,0 1,0.99999998 -1,-0.99999998 m 76,15.00000038 5,4 -5,-4 m -213.000005,2 -1,1 1,-1 m 11,1 2,3 -2,-3 m 4,0 c 9.4518,7.9296 31.0936,9.4652 43,13.1913 C 105.12197,42.8382 139.84597,53.1721 173.10097,66 l -1,3 c -37.84,-7.3426 -75.374905,-22.7652 -112.000005,-34.6697 -8.4001,-2.7304 -16.7485,-5.3584 -24.9992,-8.5163 -3.5531,-1.3599 -8.2713,-2.1751 -7.0008,-6.814 m 322.000005,3 c 0,7.941 2.546,22.324 -8,24 0.344,-7.9978 2.91,-17.6991 8,-24 m 41,5 -1,1 1,-1 m -221,4 -1,1 1,-1 m 53,7 6,3 -6,-3 m 97,6 c 14.709,15.5046 -1.241,33.6003 -6,51 l -4,-2 v 8 c -7.717,-2.265 -7.284,-8.2718 -7,-15 l 7,7 c -6.767,-12.2206 0.9,-38.0421 10,-49 m -263.000005,4 -1,1 1,-1 m 4,1 -1,1 1,-1 m 13,2.3333 c 0.7733,0 0.1602,0.4979 -0.3333,0.3334 l 0.3333,-0.3334 m -4,0.6667 c 3.8099,0.8555 7.7784,-0.3006 9,4 l -10,-3 1,-1 m -65.9999996,1 1,8 5.9999996,-1 V 59 L 6.1009654,58 V 57 L 10.100965,56 V 55 L 4.1009654,53 m 76.9999996,0 4,3 c 7.7234,-1.0835 17.617705,3.8885 25.000005,6.2554 18.985,6.0867 44.391,9.5852 61,20.7446 -6.886,1.7753 -16.433,-2.5969 -23,-4.9583 -13.069,-4.6992 -26.717,-8.1785 -40,-12.2269 C 103.10457,64.292 91.662365,62.3423 90.100965,57 h -1 -8 v -1 l 2,-1 -3,-1 1,-1 m 3,3 1,1 -1,-1 m 253.000005,0 v 2 l -2,-2 h 2 m -294.000005,2 -1,1 1,-1 m 8,1 v 1 l -7,-1 h 7 m 149.333005,-0.3333 0.334,0.6666 -0.334,-0.6666 M 173.10097,100 c -26.684,-5.5078 -53.142,-15.4645 -79.000005,-24.0008 -6.8824,-2.272 -23.0641,-4.8527 -27,-10.9992 l -2,2 -10,-5 c 7.0103,-2.4869 19.1363,4.1015 26,6.3303 21.926305,7.1198 43.963005,14.0142 66.000005,20.7862 7.42,2.2802 21.715,4.0178 26,10.8835 m 90,-26 -1,1 1,-1 m 64,0 c 0,8.1791 2.638,20.6821 -6,25 0,-9.2935 0.647,-17.0428 6,-25 M 4.1009654,75 c 0.0642,2.9934 -0.0539,4.3456 3,5 l -1,-5 h -2 m 31.9999996,4 c 8.42,18.5291 18.1684,40.72 21,61 h -1 l -15.1528,-42 -4.8472,-19 m -31.9999996,16 5.9999996,1 -1.9999996,24 -3,-2 c -1.60042,9.715 13.6341996,6.719 13.9999996,18 h 3 l -1,7 c 3.5999,4.124 -0.0594,5.376 -4,7 l 22,6 1,3 h 1 l 1,-3 h 6 l -4,-7 2,1 v -1 l -8,-13 -6,-24 -8,-5 1,-5 -5,-2 2,-3 4,1 -2,-6 -3,1 v -3 l -3,1 c 0.1386,-2.172 -1.4191,-4.8457 -3,-2 h -1 l 1,-4 H 9.1009654 c -4.97511,-7.5181 -5,7.1773 -5,10 m 255.0000046,-9 -2,2 2,-2 m -201.000005,4 1,4 36,5 v 1 h -3 v 1 l 6,1 -1,-2 h 1 l 51.000005,14.556 29,7.444 c 0,5.633 2.447,16.86 -4,19 v -15 l -30,-10 c 0.013,4.657 2.292,13.864 -2.51,16.933 -5.011,3.202 -21.064,-4.044 -26.49,-5.654 C 95.272865,121.395 54.424965,119.216 58.100965,90 m 202.000005,0 v 10 h -1 l -1,-5 -3,3 2,10 -2,19 h -5 v 1 h 5 c -1.196,3.643 -3.393,4.205 -7,5 l -1,-5 2,-3 h -1 v 2 h -1 l 3,-6 -1,-5 c 5.418,0 -0.339,-24.262 9,-23 l 2,-3 m -256.0000046,8 1,1 -1,-1 m 86.9999996,0 -1,1 1,-1 m 169.000005,6 v 4 h -1 l 1,-4 m -143,3 1,1 -1,-1 m 135.667,0.333 0.666,0.334 -0.666,-0.334 M 84.100965,112 v 1 h 7 l -7,-1 m 175.667005,0.667 -0.334,0.666 0.334,-0.666 m -230.667005,0.666 c 0.7733,0 0.1603,0.498 -0.3333,0.334 l 0.3333,-0.334 m -14.3333,5.334 -0.3334,0.666 0.3334,-0.666 m 61.3333,1.333 -1,1 1,-1 m 45.000005,0 1,1 -1,-1 m 186,0 v 3 h -1 l 1,-3 m -185,5 h 5 c -1.468,-2.969 -4.202,-3.705 -5,0 m -35.000005,-2 -2,2 v -2 h 2 m 4,1 11.000005,5 c -2.766705,-0.756 -12.335505,-1.409 -11.000005,-5 m 14.000005,4 5,2 v 1 l -5,-3 m 7,2 3,1 v 1 l -4,-1 1,-1 m 13,6 -6,-2 6,2 m 121.667,-1.333 -0.334,0.666 0.334,-0.666 m -89.667,10.333 14,3 v 1 l -29,-7.895 -13,-5.105 -3,1 c 3.588,-4.041 27.585,3.92 31,8 m 25,-8 c 3.977,13.454 -0.35,32.057 -0.961,46 -1.142,26.091 1.263,53.075 -2.039,79 h -1 c 0,-28.416 1.291,-56.661 1.985,-85 0.299,-12.181 -2.769,-28.603 2.015,-40 m -142.000005,2 1,1 -3,2 2,-3 m 71.000005,2 -1,1 1,-1 m 134,0 -1,1 1,-1 m -192.000005,2 -1,1 1,-1 m 64.000005,0.333 c 0.773,0 0.16,0.498 -0.333,0.334 l 0.333,-0.334 m -76.333305,1.334 -0.3334,0.666 0.3334,-0.666 m 84.333305,0.333 13,4 v 1 l -14,-4 1,-1 m -95.000005,1 -1,1 1,-1 m 215.000005,3 -1,1 1,-1 m -99,2 3,1 v 1 l -4,-1 1,-1 m 6,2 -1,1 1,-1 m 2,1 3,1 v 1 l -4,-1 1,-1 m 149,0 -2,2 2,-2 m -142,2.333 c 0.773,0 0.16,0.498 -0.333,0.334 l 0.333,-0.334 m 6,0.667 v 1 h -3 l 3,-1 m 4,2 -1,1 1,-1 M 43.100965,175 v 2 h 8 l -8,-2 m 11,2 1,1 -1,-1 m 36,0 -1,1 1,-1 m 145.000005,8 v 3 h -1 l 1,-3 m -132,3.333 c 0.7734,0 0.1602,0.498 -0.3333,0.334 l 0.3333,-0.334 m 178,6.667 v 2 h -2 l 2,-2 m -208.000005,1 -1,1 1,-1 m 206.667005,2.667 -0.334,0.666 0.334,-0.666 m -3.667,8.333 -1,5 h -1 l 2,-5 m -143,4 -1,1 1,-1 m 14,4 -1,1 1,-1 m 126,0.333 c 0.773,0 0.16,0.498 -0.333,0.334 l 0.333,-0.334 M 77.100965,216 l 1,1 -1,-1 m 196.000005,1 -1,4 h -1 l 2,-4 M 4.1009654,219 c 0,5.335 -1.01701,11.89 0.70293,17 3.90773,11.609 16.3776696,24.324 23.8734696,34 11.6861,15.085 23.3671,30.424 34.3881,46 6.0237,8.513 15.9154,29.159 27.0355,30 -11.9739,-25.199 -32.1783,-48.973 -47.9753,-72 -12.173,-17.744 -23.1739,-39.481 -38.0246996,-55 m 265.0000046,7 -2,7 h -1 l 3,-7 m 71,7 1,13 h 1 v -13 h -2 m -172,1 -1,1 1,-1 m 31,0 1,1 -1,-1 m 67,0 -5,15 h -1 l 6,-15 m -114,1.333 c 0.773,0 0.16,0.498 -0.333,0.334 l 0.333,-0.334 m 3,0.667 -1,1 1,-1 m -6,3 v 1 h -3 l 3,-1 m 17,0.333 c 0.773,0 0.16,0.498 -0.333,0.334 l 0.333,-0.334 m 3,1 c 0.773,0 0.16,0.498 -0.333,0.334 l 0.333,-0.334 m -36,1 0.333,0.334 c -0.493,0.164 -1.106,-0.334 -0.333,-0.334 m 40,4.667 v 1 l -21,-5 21,4 m -35,-3.667 0.333,0.334 c -0.493,0.164 -1.106,-0.334 -0.333,-0.334 m 3,1 c 0.773,0 0.16,0.498 -0.333,0.334 l 0.333,-0.334 m 14,2.667 v 1 l -10,-2 10,1 m 2,1 -1,1 1,-1 m -17,1 -1,1 1,-1 m 33,3 v 1 l -15,-3 15,2 m -99.000005,-2 2,4 -5,-1 v 1 l 6,4 -1,2 3,1 -4,3 v 2 c 3.95,1.984 6.5186,3.388 7,8 1.6589,1.187 3.2953,2.458 5.0247,3.542 14.628505,9.173 1.0981,-16.639 0.9753,-21.542 l -14,-6 m 50.000005,0 -1,1 1,-1 m 46,11 v 1 l -45,-11 15,1.999 30,8.001 m -22,-11 2,1 v 1 l -2,-2 m 193,0 v 7 h 1 l -1,-7 m -82,1.333 c 0.773,0 0.16,0.498 -0.333,0.334 l 0.333,-0.334 m -135,3.667 h -1 l -5,-2 c 2.88,-1.098 4.35,-0.555 6,2 m 37,-1 v 1 l -10,-2 10,1 m -33,0 44,12 v 1 l -34,-8.167 -10,-4.833 m 36,1 7,2 v 1 l -8,-2 1,-1 m -45,3 -1,1 1,-1 m 52,12 v 1 l -48,-10 c 2.808,-4.277 8.667,-1.667 13,-0.626 11.718,2.817 23.214,6.924 35,9.626 m 70,-12 v 1 l -6,1 6,-2 m -123,4 -3,-2 3,2 m 115,-1.667 c 0.773,0 0.16,0.498 -0.333,0.334 l 0.333,-0.334 m -2,0.667 -1,1 1,-1 m 54,0 -1,1 1,-1 m -114,15 -33,-8 v 1 l 34,10 v 1 l -38,-9.706 -18,-6.294 c 11.795,-5.676 29.234,3.153 41,6.424 4.439,1.234 11.039,1.897 14,5.576 m 58,-14 -6,4 v -1 l 6,-3 m 26,0 -1,1 1,-1 m 8,0 -1,1 1,-1 m 9,0 -1,1 1,-1 m 8,0 -1,1 1,-1 m 6.667,0.667 -0.334,0.666 0.334,-0.666 m 9.333,-0.667 -1,1 1,-1 m -22,1 -1,1 1,-1 m 9,0 -1,1 1,-1 m 8,2 -3,-1 3,1 m -170,-1 v 1 h 3 l -3,-1 m 57,0 v 6 h -1 l 1,-6 m 72,0 -1,1 1,-1 m 52.667,0.333 0.666,0.334 -0.666,-0.334 M 128.10097,265 v 1 l 8,1 -8,-2 m 150,-1 3,1 v 1 l -4,-1 1,-1 m 17,0 6,2 v 1 l -7,-2 1,-1 m 12,1 9,8 h -1 l -9,-7 1,-1 m 10,3 -3,-2 3,2 m -31,1 -3,-1 3,1 m 4,-2 -1,1 1,-1 m 3,0 -2,2 2,-2 m 10,0 -1,1 1,-1 m -8,1.333 c 0.773,0 0.16,0.498 -0.333,0.334 l 0.333,-0.334 m 11,-0.333 v 2 h -2 v -2 h 2 m 13,0 c 2.599,2.456 4.335,5.101 7,2 l -1,3 v 1 1 l 4,4 -3,1 -7,-12 m 10,0 1,1 -1,-1 m -151,2 -1,1 1,-1 m 113,1 -1,1 1,-1 m 18,0 1,2 -1,-2 m -26,1 1,2 -1,-2 m 10,0 -1,1 1,-1 m 7,0 -1,1 1,-1 m 29,0 4,6 -4,-1 2,-2 -2,-3 m -196,2.333 c 0.773,0 0.16,0.498 -0.333,0.334 l 0.333,-0.334 m 153,-0.333 -1,1 1,-1 m 6,1 -1,1 1,-1 m 19,0.333 0.333,0.334 c -0.493,0.164 -1.106,-0.334 -0.333,-0.334 m 12,-0.333 1,2 -1,-2 m 14,0 v 5 1 l 8,5 v 1 l -5,-1 -3,4 -3,-4 v -1 l 5,3 1,-3 -6,-5 v -1 h 4 l -1,-4 m 4,0 -1,1 1,-1 m -21,1 4,5 -4,-5 m -40,1 -1,1 1,-1 m 34,0.333 c 0.773,0 0.16,0.498 -0.333,0.334 l 0.333,-0.334 m 4,-0.333 2,3 -2,-3 m -12,1.333 c 0.773,0 0.16,0.498 -0.333,0.334 l 0.333,-0.334 m 38,-0.333 1,1 -1,-1 m 3,0 1,1 -1,-1 m -73,1 -1,1 1,-1 m 16,0.333 c 0.773,0 0.16,0.498 -0.333,0.334 l 0.333,-0.334 m 41,-0.333 -1,1 1,-1 m 2,0 -1,1 1,-1 m -238.000005,1 -1,3 -4,-1 7,7 -2,5 3,1 c -0.9156,4.792 1.2548,7.305 6.000005,8 l -5.000005,-17 v -1 l -4,-5 m 251.000005,0 2,2 -2,-2 m 3,0 1,1 -1,-1 m -247,1 1,1 -1,-1 m 207,0 -1,1 1,-1 m 19,0 -1,1 1,-1 m 4,0 -1,1 1,-1 m -39,1 -1,1 1,-1 m 5,0 -1,1 1,-1 m 24,0 -1,1 1,-1 m 4,0 7,6 v 1 c -3.449,-1.105 -7.902,-2.797 -7,-7 m 10,0 -1,1 1,-1 m -217,1 1,1 -1,-1 m 191,0 -1,1 1,-1 m 20,0 -1,1 1,-1 m 3,0 -1,3 h -1 l 2,-3 m -14,1 -1,1 1,-1 m -6,2.333 c 0.773,0 0.16,0.498 -0.333,0.334 l 0.333,-0.334 m -187,1.667 1,1 -1,-1 m 12,0 1,1 -1,-1 m 177,0 -1,1 1,-1 m 9,3 -5,-1 c 2.339,-1.739 4.585,-2.272 5,1 m 4,-3 -1,1 1,-1 m 32,0 1,1 -1,-1 m -16,1 1,1 -3,2 2,-3 m 5,0 -1,1 1,-1 m 8,0 1,1 -1,-1 m -245.333,1.333 0.666,0.334 -0.666,-0.334 m 11.333,-0.333 1,1 -1,-1 m 23,0 1,1 -1,-1 m 167,0 -1,1 1,-1 m 4,0 1,1 -2,3 h -1 l 2,-4 m 13,0 -1,1 1,-1 m 29,0 2,9 h 1 l -3,-5 v -4 m 2,0 1,5 h 1 l -2,-5 m -247,1 v 1 h 4 l -4,-1 m 35.667,0.333 0.666,0.334 -0.666,-0.334 m 151.333,-0.333 -1,1 1,-1 m 8.667,0.667 -0.334,0.666 0.334,-0.666 m 30.333,-0.667 v 3 h -1 l 1,-3 m -188,1 v 1 h 3 l -3,-1 m 182,0 1,2 h -2 l 1,-2 m 10.667,0.667 -0.334,0.666 0.334,-0.666 m 5.333,-0.667 v 4 l 5,-3 -3,3 5,7 v 1 l -1,2 -6,-1 -1,-4 h 5 c -4.279,-1.13 -6.545,-5.101 -4,-9 m 14,0 1,3 h 1 l -2,-3 m -219,1 1,1 -1,-1 m -32,1 v 1 h 5 l -5,-1 m 42,0 1,1 -1,-1 m 157,0 -1,1 1,-1 m 8,0 -1,1 1,-1 m 7,0 -1,1 1,-1 m 16,0 -1,1 1,-1 m 6,0 1,1 -1,-1 m -203,1 1,1 -1,-1 m 14,0 v 1 h 3 l -3,-1 m 18,0 v 5 h -1 l 1,-5 m 151,0 -1,1 1,-1 m 17,0 c 1.449,2.659 2.378,4.261 -1,5 l 1,-5 m -162,1 v 3 h 1 l -1,-3 m 154.667,0.667 -0.334,0.666 0.334,-0.666 m 2.333,-0.667 2,4 -2,-4 m 22.333,0.667 0.334,0.666 -0.334,-0.666 m -28.333,0.333 -1,1 1,-1 m 15,0 1,3 h 1 l -2,-3 m -27,2 -1,1 1,-1 m 13,0 1,3 -1,-3 m 4,1 -1,1 1,-1 m -175,1 v 4 h 1 l -1,-4 m 201,0 1,1 -1,-1 m -31,1 1,3 2,-2 5,5 c -3.044,-1.256 -8.091,-2.228 -8,-6 m 9,0 6,4 v 1 l -7,-4 1,-1 m -22,1 -1,1 1,-1 m 9,0 -1,1 1,-1 m -227,1 -3,1 c -1.270205,10.031 1.5117,17.7 12,22 2.022,-7.427 -3.224,-14.332 -6,-21 l -3,1 v -3 m 239,0.333 c 0.773,0 0.16,0.498 -0.333,0.334 l 0.333,-0.334 m -194,0.667 2,2 v -2 h -2 m 4,0 c 0.757,4.317 2.997,4.29 7,4 v -2 h -4 v -1 h 4 l -7,-1 m 179,0 4,4 -4,-4 m -2,1 -1,1 1,-1 m 2,2 -1,1 1,-1 m -4,1 -1,1 1,-1 m -9.333,3.667 -0.334,0.666 0.334,-0.666 M 160.10097,313 v 1 h -4 l 4,-1 m 239,57 -3,-4 1,-2 -7,-2 -4,10 c -8.11,-4.257 -3.64,-8.931 -7.643,-14.811 -3.539,-5.199 -10.87,-4.594 -16.357,-5.189 v 1 l 8,4 v 1 c -14.242,-4.779 -24.616,-11.041 -40,-11 v 3 l -31,-5 1,-4 -5,3 c 5.3,-6.25 13.031,-9.92 20,-14.011 16.113,-9.459 35.383,-21.708 55,-14.888 16.066,5.586 21.499,22.313 26.95,36.899 1.968,5.266 5.717,12.965 2.05,18 m -220,-43 v 4 h -1 l 1,-4 m -65,8 v 1 l 3,1 -2,3 5,2 c -0.588,-4.009 -2.206,-5.668 -6,-7 m 1,12 h 9 c -3.095,-3.656 -6.499,-4.774 -9,0 m 14,-4 -1,1 1,-1 m 165,1 -37,40 c 6.704,-0.114 11.132,-3.939 14,4 h 1 c 0.841,-1.798 1.569,-4.108 3,-2 h 1 l 5,-11 c -0.584,-4.243 0.683,-7.229 2.627,-10.996 12.588,-24.398 37.012,-3.642 56.373,-9.004 0.739,4.839 -3.118,5.303 -7,7 v 1 l 2,1 v 1 l -2,2 c 10.574,1.207 4.324,11.797 7.148,19 3.2,8.159 13.59,13.762 21.852,15 v -1 c -6.693,-1.007 -15.648,-5.254 -18.258,-12.004 -3.374,-8.727 0.189,-21.752 10.258,-21.996 v 9 l 7,2 c 2.209,-3.905 4.951,-2.963 9,-3 -1.84,-4.154 -4.238,-7.886 1,-10 4.071,12.225 -2.992,19.182 -3,31 l 11,-19 -1,8 h 1 l 1,-5 c 12.043,1.866 14.304,18.49 19,27 l 1,-18 c 3.403,0.729 2.987,2.806 3,6 h 3 l -5.343,24.025 -7.3,9.99 0.642,43.985 -2.999,17 -1,2 -7,-4 h -4 v 4 l 8,2 -1,3 c 10.158,-0.084 15.589,1.062 25,5 v 1 l -7,-1 c -2.876,4.996 -10.826,14.076 -17,14.306 -3.401,0.127 -6.535,-2.184 -10,-2.306 -1.02,-3.45 -1.927,-7.442 1,-10 -0.912,-2.887 -1.872,-6.346 -5,-4 l -10,-20 -2,3 h -1 l 3,-8 6,12 h 1 c -0.845,-5.068 -3.639,-6.089 0,-9 h -4 l 1,-3 -4,-1 -2,-5 1,5 -4,1 -3,-1 1,-5 3,2 v -11 l -9,3 1,3 -5,-1 v -1 l 3,1 1,-3 -2,-4 -4,1 v -1 l 6,-1 1,-4 c 7.352,-1.276 18.308,-8.205 24.258,0.133 2.346,3.289 2.289,7.46 4.742,10.867 l 6,-8 -1,-15 h -1 v 3 l -4,-2 -1,3 h -1 l -6,-9 5,3 5,-4 -6,-12 c 6.658,-0.806 10.722,3.102 14,-5 l -18,2 v 2 l 3,1 v 1 l -11,-9 c -0.114,4.042 0.393,6.848 4,9 v 1 c -4.898,4.034 -7.779,10.394 -15,9 v 10 h -2 l -6,-6 -4,9 -4,2 v 4 l -1,-3 c -2.316,1.39 -2.374,3.128 -3,0 h -1 l 1,4 -7,-1 1,-3 -3,1 2,4 -6,-2 v -3 l -3,2 v -2 l -6,4 1,-7 -3,2 -1,-3 2,-2 3,-1 -11,2 -1,-8 h -1 l -1,3 -1,-6 h -3 l 1,-5 -3,2 -2,-7 h -1 l -1,7 -4,-2 v -1 l 3,-6 h -6 l 1,-11 h -1 c -4.374,4.257 -5.163,-8.449 -5,-11 h -1 l -3,3 v -7 h -1 l -4,11 2,-2 h 1 l -3,6 -2,-2 -5,5 1,-3 -5,25 3,-1 3,22 h 1 l -1,6 11,12 -1,5 4,6 -6,1 v 1 l 6,-1 4,4 -1,3 3,1 v 1 l -3,-1 2,6 -3,4 -6,-1 v 1 l 3,1 -5,10 v 6 c 5.982,0.281 12.027,1.312 15,7 -15.678,4.98 -31.846,5.301 -48,7.286 -9.809,1.206 -21.52,4.055 -30.996,-0.256 -11.819,-5.377 -11.803,-29.606 -8.004,-40.03 6.879,3.352 12.755,11.297 13,19 16.682,-5.257 18.399,3.77 23,18 h 2 c 3.734,-20.417 -2.082,-38.847 -3.674,-59 -0.565,-7.149 1.088,-14.536 0.664,-21.7 -0.46,-7.77 -2.537,-25.731 4.712,-31.276 4.386,-3.355 12.982,0.238 18.298,-1.024 v -15 h -1 c -4.025,5.875 -10.568,3.213 -16,1 l 1,-5 -6,8 h -1 c 1.715,-8.863 9.872,-15.855 16,-22 14.02,-14.059 27.208,-31.171 44,-42 m -156,1.333 0.333,0.334 c -0.493,0.164 -1.106,-0.334 -0.333,-0.334 m 9,0.667 -1,1 1,-1 m 28,3 -3,-3 3,3 m 159,0 -1,1 1,-1 m 22.667,1.333 0.666,0.334 -0.666,-0.334 m -24.667,0.667 -1,1 1,-1 m 20,2.333 c 0.773,0 0.16,0.498 -0.333,0.334 l 0.333,-0.334 m -14,2.667 1,1 -1,-1 m 27,7 -17,-3 -1,-3 1,-1 c 6.515,1.387 13.43,0.383 17,7 m -30.333,-4.667 0.666,0.334 -0.666,-0.334 m 19.333,2.667 v 2 h -7 l 7,-2 m 13,1 1,2 h -2 l 1,-2 m -273.333305,9.667 -0.3334,0.666 0.3334,-0.666 M 411.10097,393 h -2 c -0.257,-8.647 -6.197,-14.041 -14,-17 v 1 l 3,3 -9,1 4,-6 -7,-1 c 10.694,-6.083 24.759,9.017 25,19 m -33.667,-8.333 0.334,0.666 -0.334,-0.666 m 17.667,0.333 2,4 h -5 v -1 l 3,-3 m -142,1 -5,6 c 4.615,1.05 6.809,-1.531 5,-6 m 123,1 1,1 -1,-1 m -97,11 1,1 -1,-1 m 83,3 v 1 h 4 l -4,-1 m -82,4 1,1 -1,-1 m 120,0 -1,3 h 1 v -3 m -166,4 -2,2 2,-2 m -2,4 -1,1 1,-1 m 48,3.333 c 0.773,0 0.16,0.498 -0.333,0.334 l 0.333,-0.334 m -26,0.667 -1,1 1,-1 m 34,4 h 1 l 3,-3 -4,3 m -8,-1 1,7 -4,-5 3,-2 m 3,3.333 c 0.773,0 0.16,0.498 -0.333,0.334 l 0.333,-0.334 m 3,-0.333 -1,1 1,-1 m -28,3 1,1 -1,-1 m 7,1 -1,1 1,-1 m 22,0 1,1 -1,-1 m 11,4 1,1 -1,-1 m 84,0 1,1 -1,-1 m -86,1 1,1 -1,-1 m 5.333,2.667 0.334,0.666 -0.334,-0.666 m 79.667,0.333 1,3 h 1 l -2,-3 m -85,1 -1,1 1,-1 m 54,2 v 1 l 3,1 -3,-2 m 19,0 v 3 h -1 l -1,-3 h 2 m 10,2 1,1 -1,-1 m -21,1 v 3 h -2 v -3 h 2 m -45.667,2.667 0.334,0.666 -0.334,-0.666 m 54.667,-0.667 -1,1 1,-1 m 9,1 -3,3 3,-3 m -80,2 1,2 -1,-2 m 32,0 -1,3 1,-3 m -14,1 2,2 -2,-2 m 35,1 v 3 l -4,-1 4,-2 m -40,1 -1,1 1,-1 m 21,1 1,1 -1,-1 m -20,1 -1,1 1,-1 m 42.333,3.667 0.334,0.666 -0.334,-0.666 m 8,4 0.334,0.666 -0.334,-0.666 m 2.667,-0.667 -1,10 5,2 -2,-2 v -6 l -2,1 v -1 -4 m -12,2 1,1 -1,-1 m 6,0 v 3 h -1 l 1,-3 m -10,1 -1,1 1,-1 m 13,0 1,1 -1,-1 m 6,2 v 3 h 1 l -1,-3 m 14,0 1,1 -1,-1 m -26,1 1,5 v 1 l -5,-2 4,-4 m 4,1 -1,1 1,-1 m -2,1 -1,1 1,-1 m 4,1 1,1 -1,-1 m 4,0 -1,1 1,-1 m 4,1 1,1 -1,-1 m -17.333,3.667 -0.334,0.666 0.334,-0.666 m 14.333,-0.667 2,2 v -2 h -2 m -26,3 -1,1 1,-1 m 10,0 1,4 h -1 v -4 m 3,0 -1,1 1,-1 m 6,2 -1,1 1,-1 m 31,0 1,1 -1,-1 m 2,0 2,3 v -3 h -2 m -43,4 -1,1 1,-1 m 21,0 1,1 -1,-1 m 5,0 3,3 -3,-3 m 17,0 1,1 -1,-1 m -21,2 1,1 -1,-1 m -26,1 -1,1 1,-1 m 34,0 4,3 -4,-3 m -29,2 -1,1 1,-1 m 43,0 -1,1 1,-1 m -34,1 -1,1 1,-1 m 19,0 1,1 -1,-1 m -3,1 1,1 -1,-1 m -5,2 v 3 h 1 l -1,-3 m 2,2 1,4 h 1 l -2,-4 m -7,1 -1,1 1,-1 m 2,2 4,4 -5,-3 1,-1 m 8,0 1,3 h 1 l 1,-3 h -3 m 6,0 2,2 -2,-2 m 4,0 1,3 -7,3 v 1 h 4 v 1 h -3 v 1 1 l 3,-4 c 2.611,-1.689 3.432,-3.154 2,-6 m -11,2 1,1 -1,-1 m -190,1 -1,1 1,-1 m 184,0 -1,1 1,-1 m 10,0 1,1 -1,-1 m -196,2 -2,3 2,-3 m -17,1 1,5 -6,-4 5,-1 m -139.000005,2 -1,3 -8,-2 9,-1 m 155.000005,1 v 7 l -2,-7 h 2 m 197,2 1,1 -1,-1 m -105,2 1,1 -1,-1 m 103,1 v 2 h -2 v -2 h 2 m -197,2 -1,1 1,-1 m 233,0 7,6 -3,1 -4,-7 m -139,1 1,1 -1,-1 m -174.000005,1 -2,4 -2,-1 -6,3 10,-6 m 87.000005,0 7,7 -2,1 c -2.893,-2.105 -5.762,-4.211 -5,-8 m 198,0 1,1 -1,-1 m 28,6 -1,4 9,3 4.959,11.015 -3.959,13.985 h -1 l 1,-11 -3,-3 -4,1 2,5 h -1 -1 c 0,-2.795 -1.48,-2.265 -4,-2 v -1 l 3,-1 v -1 c -2.913,0.5 -4.317,1.123 -5,-2 h 1 l 3,1 v -3 l -6,1 v -1 l 3,-1 -12,-17 c 4.855,-4.087 9.77,1.771 15,3 m -311,-5 -1.000005,1 1.000005,-1 m -18.000005,1.333 c 0.7734,0 0.1602,0.498 -0.3333,0.334 l 0.3333,-0.334 m 99.000005,0.667 -1,1 1,-1 m -100.333305,1.667 -0.3334,0.666 0.3334,-0.666 m 31.333305,1.333 3,1 v 1 l -4,-1 1,-1 m -33.000005,1 v 1 l -4,1 4,-2 m 28.000005,7 H 97.100965 l 1,-3 -2,4 h -8 c 2.8681,-9.298 14.391905,-8.258 19.000005,-1 m 76,-7 -1,1 1,-1 m 231,0 3,4 -3,-4 m 14,14 -11,-14 c 6.731,1.021 13.969,6.852 11,14 m -236.333,-12.333 -0.334,0.666 0.334,-0.666 M 75.100965,522 l -4,7 -1,-5 5,-2 m 326.000005,0 1,1 -1,-1 m 10.333,1.667 0.334,0.666 -0.334,-0.666 m -273.333,0.333 -7,14 -10,1 v -1 h 2 v -1 l -3,3 -8,-2 -9,-9 h 1 l 2,2 8,-2.917 24,-4.083 m 50,2 -1,1 1,-1 m 223.667,0.333 0.666,0.334 -0.666,-0.334 m -10.667,0.667 -1,1 1,-1 m -299,1 -1,1 1,-1 m 310,0 1,8 c 3.277,-2.521 1.406,-5.361 -1,-8 m -311,4 -5.000005,-3 5.000005,3 m 28,-2 -2,5 -2,-2 h -1 -1 l -2,3 3,1 v -2 l 4,1 1,-6 m 62,0 -1,1 1,-1 m 180,0 -1,1 1,-1 m -302.000005,1 -1,1 1,-1 m 332.000005,0 -3,2 v -1 l 3,-1 m -339.000005,1 -1,1 1,-1 m 2,2 c -3.0801,4.526 -8.6558,7.966 -14,9 1.1356,-3.422 2.57,-3.784 6,-3 l 2,-7 6,1 m 2,-0.667 c 0.7734,0 0.1602,0.498 -0.3333,0.334 l 0.3333,-0.334 M 371.10097,533 l -1,1 1,-1 m 24,1 -1,1 1,-1 m -335.000005,1 1,1 -1,-1 m 372.000005,0 1,6 -1,-6 m -57,1 -1,1 1,-1 m 31,0 -1,1 1,-1 m -209,1 -1,1 1,-1 m 222,0 1,1 -1,-1 m -48,1 1,2 -1,-2 m 41,0 1,1 -1,-1 m -31,1 v 1 h -3 l 3,-1 m 22,0.333 c 0.773,0 0.16,0.498 -0.333,0.334 l 0.333,-0.334 m 14,-0.333 -1,1 1,-1 m -218,1 -1,1 1,-1 m 169,0 c 0.499,3.314 -0.059,4.38 -3,6 l 3,-6 m -6,1 v 5 h -1 l 1,-5 m 47,0 -1,1 1,-1 m -316.000005,1 v 1 l -5,5 21.000005,3 -8,5 v 1 c 7.884,-2.21 14.249,-0.006 22,2 -4.725,10.841 -0.205,17.166 9,24 l 1,-3 c 2.153,3.039 3.272,6.525 0,9 l 1,9 h 1 l 4,-9 h 1 c 0.577,2.711 0.768,3.395 -2,4 l 2.147,27.985 4.853,14.015 h 1 l -1.348,-13 6.348,-29 h 1 c -0.181,4.942 2.154,6.921 7,7 1.46,6.725 5.285,19.303 11,23 0.594,-4.086 3.746,-7.388 3.991,-11.424 0.495,-8.185 -5.683,-21.587 -0.991,-28.576 8.049,22.041 5.414,53.143 -2,75 h 6 l -4,1 -2,8 h -1 l -2,-2 c -1.935,18.094 -24.768,34.642 -42,35 -1.253,7.231 -11.337,4.796 -17,5 l 2.527,17.896 -13.527005,11.104 -11,-2 13.000005,15 -3.000005,-1 c 5.669205,3.404 14.577005,-6.521 19.000005,-9.87 9.58,-7.253 20.975,-12.271 29.91,-20.276 6.378,-5.713 10.266,-15.086 17.09,-19.854 l -1,-2 6,-5 -3,2 2,4 h -3 c 0.575,2.396 0.475,2.487 -2,3 l 1,4 -3,-1 c 0.577,2.711 0.767,3.395 -2,4 l 1,3 h -4 v 1 l 2,2 h -4 v 4 l -3,-1 1,4 -3,-1 v 4 l -3,-1 v 4 l -4,-1 2,6 -5,-3 1,5 -5,-2 2,6 -5,-3 2,6 -4,-2 1,4 -4,-1 v 4 l -4,-2 1,4 -4,-2 1,5 -4,-2 1,4 -5,-2 1,5 -5,-2 1,4 -4,-1 1,3 -1,1 -4,-2 1,4 -5.000005,-1 v 4 l -5,-3 2,5 -6,-2 2,4 -7,-2 2,4 -6,-2 2,4 -6,-2 2,4 -6,-2 1,4 -6,-2 -1,3 -3,-1 2,6 h -1 l -1,-4 -8,6 -11,3 2,6 h -1 l -1,-5 -7,4 -6,-1 -4,-4 c 1.1833,-10.866 -8.2533,-16.769 5,-19 l -1,-3 2,3 h 15 c -2.2529,-3.65 -4.5939,-5.778 -9,-6 l 5,-5 1,4 h 1 l 3,-3 -4,-4 2,-6 h 1 l 6,5 -1,-4 c 9.922,-8.828 16.8781,-21.916 30,-27 1.0347,1.174 1.6833,2.185 3.1381,2.881 14.4792,6.932 6.5511,-10.52 14.861905,-14.881 l 10,11 -4,-17 5,-1 c 1.536,-7.217 20.721,-8.208 27,-7 1.891,-4.817 5.328,-4.768 10,-4 l 10,-15 3,1 c 2.388,-8.723 -3.032,-9.155 -10,-8 -3.718,-11.433 -12.231,-29.28 -8,-41 -7.79,-4.2 -15.92,-18.884 -25,-17 l 4,-8 v -1 l -8,-3 -1.826,-21 0.826,-15 c -11.3263,2.337 -16.381805,2.643 -25.013905,10.427 -2.1521,1.941 -4.0363,2.778 -5.9861,0.573 h -1 l -2,3 c -2.7581,-1.096 -5.3925,-3.234 -3,-6 v -1 l -5,1 2,5 -4,2 h -1 l -8,-1 5,5 c 1.2747,1.747 2.4557,2.865 4,4.333 6.6657,6.338 -2.6389,6.71 -7,3.334 -2.4728,-1.915 -1.9314,-5.41 -4.1667,-7.334 -1.1688,-1.005 -1.9222,-0.016 -2.8333,0.667 l -1,-3 c 2.0394,-7.328 -27.1925,-21.473 -6.8302,-28.867 3.269,-1.187 6.6019,-1.738 9.8302,-3.133 l -7,9 c 8.1932,0.609 8.3423,-6.189 14.1049,-9.991 5.0652,-3.341 12.3119,-2.045 17.8951,-1.009 l -1,-3 12,-1 m 41.000005,0 2,2 v 1 l -2,-3 m 284,1 -1,1 1,-1 m -370.000005,1 c -2.9695,4.838 -9.694,6.677 -15,8 v -1 l 11,-7 h 4 m 153.000005,0.333 c 0.773,0 0.16,0.498 -0.333,0.334 l 0.333,-0.334 m 172.667,0.334 -0.334,0.666 0.334,-0.666 m -236.667,1.333 -1,1 1,-1 m 269,0 -1,1 1,-1 m -299,1 26,9 v 1 c -5.181,-0.516 -26.164,-3.618 -26,-10 m 96,1.333 c 0.773,0 0.16,0.498 -0.333,0.334 l 0.333,-0.334 m 230,-0.333 1,1 -1,-1 m -385.000005,1.333 c 0.7734,0 0.1601,0.498 -0.3333,0.334 l 0.3333,-0.334 M 375.10097,549 l 1,8 c 4.927,3.49 11.602,18.142 11,24 h -1 l 1,-3 c -5.327,-3.287 -14.466,-17.046 -11,-23 l -1,-6 m 33,0 -1,1 1,-1 m 17,0 -1,1 1,-1 m -11,1 -1,1 1,-1 m -319.000005,2 2,1 v 1 l -4,1 v 1 l 4,-4 h 5.000005 -7.000005 m 333.000005,-1 1,2 h -2 l 1,-2 m -223,1 -1,1 1,-1 m 198,0 -1,1 1,-1 m -322.000005,8 7,-3 -1,-3 h 6 c -5.8966,-2.451 -9.1303,1.193 -12,6 m 289.000005,-6 16,33 h -1 l -5,-10 -4,1 -3,-11 c -5.744,6.392 -3.092,19.75 0,27 l -4,-1 -2,11 c -4.249,-0.834 -4.576,2.5 -4,6 -7.786,-5.165 -4.123,-20.361 -3,-28 l 3,3 h 1 l 1,-8 1,2 h 1 l 3,-25 m -16,6 v 1 l -7,-5 h -1 l 3,7 -10,4 h -1 l -2,-4 4,2 1,-4 -4,-3 3,-2 h 1 l 1,2 c 5.168,-3.659 7.547,-1.718 12,2 m -148,-4 -1,1 1,-1 m 154,2 -1,1 -2,-3 3,2 m 2,-2 -1,1 1,-1 m -234,3 -1,1 1,-1 m 206,0 1,4 h -1 v -4 m 6,0 3,3 -3,-3 m 61,0 -1,1 1,-1 m -328.000005,1 5,4 3,9 c 5.2594,-2.769 3.7044,-6.964 5,-12 l -3,4 h -1 l -1,-4 -8,-1 m 34.000005,1 v 1 l 6,-1 h -6 m 101,0 v 1 h -3 l 3,-1 m 129,0.333 c 0.773,0 0.16,0.498 -0.333,0.334 l 0.333,-0.334 m -9.333,1.334 -0.334,0.666 0.334,-0.666 m 94.333,-0.667 -6,15 h -1 l 7,-15 m -322.333305,1.333 0.666605,0.334 -0.666605,-0.334 M 341.10097,563 l 1,1 -1,-1 m -15,1 -2,3 2,-3 m 45.667,0.333 0.666,0.334 -0.666,-0.334 m -164.667,0.667 -1,1 1,-1 m 75,0 -1,1 1,-1 m 50,1 1,4 h -1 v -4 m -54,1 -1,1 1,-1 m 58,0 -1,1 1,-1 m -128,2 v 2 l -2,-2 h 2 m 67,0 v 2 l -2,-2 h 2 m 4,0 -1,1 1,-1 m 49,0 2,3 -2,-3 m -1,2 -1,1 1,-1 m 107,0 -5,8 7,-3 -2,-5 m -162.333,1.667 -0.334,0.666 0.334,-0.666 m -62.667,0.333 -1,1 1,-1 m 219,0 -10,10 8,-10 h 2 m -159,2 -1,1 1,-1 m 21,0 -1,1 1,-1 m -80,2 -1,1 1,-1 m 78,1 -4,4 -1,-3 5,-1 m -217.333305,0.667 -0.3334,0.666 0.3334,-0.666 M 266.10097,578 l -1,1 1,-1 m -94,3 -1,1 1,-1 m 39,0 -1,1 1,-1 m 52,0 -1,1 1,-1 m 19,3 -11,1 8,6 v -1 h -2 v -1 l 5,1 -2,1 v 1 l 10,2 v 1 l -14,3 c -0.459,-4.463 -5.101,-6.17 -5.534,-10.11 -0.683,-6.213 8.201,-7.342 11.534,-3.89 m 62,-3 -1,11 h -1 l -2,-5 3,1 -1,-7 h 2 m -275.000005,1 -1,1 1,-1 m 269.000005,0 v 19 h -2 l -2,-18 4,-1 m -33.333,4.667 -0.334,0.666 0.334,-0.666 M 65.100965,587 v 2 h 2 l -2,-2 m 76.000005,0 -1,1 1,-1 m 150.667,0.667 -0.334,0.666 0.334,-0.666 m -159.667,0.333 1,1 -1,-1 m 144,0 -1,1 1,-1 m 110,0 -1,1 1,-1 m -96,2 -3,2 v -1 l 3,-1 m 6,0 -2,3 2,-3 m 49,0 5,1 -2,3 c 1.429,2.444 1.348,3.361 -1,5 l -2,15 h -2 c -1.422,-5.977 -1.023,-18.687 2,-24 m -89,1 -1,1 1,-1 m 10,0 9,7 -1,1 -4,-3 2,3 v 1 l -4,2 8,1 -2,-2 v -1 l 7,2 -4,-2 v -1 h 10 l 5,-3 -1,2 h 1 l 6,-1 v 1 l -27,9 -10,-4 3,-12 h 2 m 20,0 -1,1 1,-1 m 14,1 -1,1 1,-1 m -242.000005,1 -1,1 1,-1 m 244.000005,0 1,3 h -1 v -3 m -2,2 1,2 h -2 l 1,-2 m 47,0 1,1 -1,-1 m -212,3 1,1 -1,-1 m 154,0 1,1 -1,-1 m 74,2 3,-2 -3,2 m -230,-1 2,2 -2,-2 m -85.000005,1.333 c 0.7733,0 0.1602,0.498 -0.3333,0.334 l 0.3333,-0.334 M 150.10097,600 l 1,1 -1,-1 m 115.667,1.333 0.666,0.334 -0.666,-0.334 m 156.333,0 c 0.773,0 0.16,0.498 -0.333,0.334 l 0.333,-0.334 m -112,1.667 -2,7 -4,-1 -2,7 -9,-1 v -4 c 5.408,-4.898 8.953,-9.727 17,-8 m 27,8 h -1 v -6 l -2,1 v -4 c 4.564,1.52 3.507,4.874 3,9 m -277.000005,-6 -10,-1 10,1 m 208.000005,-2 1,1 -1,-1 m -139,1 1,1 -1,-1 m 22,0 -2,5 c 5.305,1.768 7.381,0.53 8,-5 h -6 m 107.667,0.667 -0.334,0.666 0.334,-0.666 M 38.100965,605 l 3,3 -4,-2 1,-1 m 88.000005,1 v 2 h 2 v -2 h -2 m 138,0 h 1 l -8,6 1,-5 6,-1 m 101.667,0.667 -0.334,0.666 0.334,-0.666 m -314.667005,0.666 c 0.7734,0 0.1602,0.498 -0.3333,0.334 l 0.3333,-0.334 M 129.10097,607 l 1,3 h 1 v -3 h -2 m -83.000005,1 v 1 h -3 l 3,-1 m 25,2 c -7.1893,4.941 -15.4675,6.374 -23,2 l 23,-2 m 179.000005,1 -1,1 1,-1 m 5,1 v 1 l -4,1 v -1 l 4,-1 m 35,0 v 4 l -6,2 v -1 l 6,-5 m -216.000005,1 -1,1 1,-1 m 302.000005,0 -1,1 1,-1 m -252,1 v 1 l -3,3 -4,-1 7,-3 m 234,0 -1,1 1,-1 m 7,0 v 1 l -5,1 5,-2 m -282.000005,1 -2,4 h -1 l 1,-4 h 2 m 291.000005,1 v 1 h -3 l 3,-1 m 3,1.333 0.333,0.334 c -0.493,0.164 -1.106,-0.334 -0.333,-0.334 M 78.100965,618 c 0.2352,7.41 -4.6223,5.318 -10,5 l 10,-5 m 39.000005,0.333 0.333,0.334 c -0.493,0.164 -1.106,-0.334 -0.333,-0.334 m 67,-0.333 v 8 h -1 l 1,-8 m 105,0 1,2 -1,-2 m -175,1 -1,1 1,-1 m -24.000005,1 v 2 h -2 l 2,-2 m 27.000005,0 1,3 h -1 v -3 m 4,0.333 0.333,0.334 c -0.493,0.164 -1.106,-0.334 -0.333,-0.334 m 31.333,0.334 0.334,0.666 -0.334,-0.666 m 20.667,0.333 v 3 h 1 l -1,-3 m 17,0 2,4 h -1 l -1,-4 m 14,3 -5,-1 5,1 m 84,0 -5,-1 v 1 l 14,2 2,-3 2,5 c -6.049,-0.976 -18.135,1.205 -22,-4 l 3,1 -4,-3 10,2 m -162,-2 -1,1 1,-1 m 72,0 4,4 v 1 l -5,-2 -2,7 4,3 h -4 v 1 l 3,3 -6,-1 v 1 l 4,3 h -4 l 3,4 -6,-2 3,5 -5,-1 2,4 h -4 l 2,3 h -3 l 1,3 h -3 c 0.577,2.711 0.768,3.395 -2,4 l 1,3 c -5.483,-1.175 6.206,-28.457 11,-31 l -1,-2 7,-10 m 164,1 -4,1 4,-1 m 74,3 6,-1 c -2.236,-2.926 -4.282,-1.874 -6,1 m -308,-3 -1,1 1,-1 m 167,0 -1,1 1,-1 m 5.667,0.667 -0.334,0.666 0.334,-0.666 m 50.333,-0.667 v 6 -6 m -261.000005,1 5,1 c 2.8517,5.058 8.599405,7.472 13.000005,3 l 5,1 c 0.869,-5.365 11.741,2.91 13,6 l 8,3 h -4 l 2,2 v 1 c -4.255,2.087 -13.358,0.08 -16,-4 l -12,1 4,-3 v -1 l -23.000005,-2 5,-8 m 20.000005,2 -1,1 -2,-3 3,2 m 12,-2 v 3 h -2 v -3 h 2 m 9,0.333 0.333,0.334 c -0.493,0.164 -1.106,-0.334 -0.333,-0.334 m 144,-0.333 -1,1 1,-1 m 74,0 v 3 l -2,-3 h 2 m 32,10 -5,2 -4,-1 1,-6 h -1 l -3,4 1,-3 h -10 v 2 h 4 l -5,5 1,-4 h -4 l -2,-5 c 4.201,-0.09 7.683,-0.213 10,-4 8.29,1.071 13.224,2.179 17,10 m -298.000005,-9 -1,1 1,-1 m 42.000005,0 v 3 h -1 l 1,-3 m 44,0 -2,2 v 1 l 4,-3 h -2 m 196.333,0.667 0.334,0.666 -0.334,-0.666 m -229.333,0.333 3,3 -3,-3 m 39,0 1,1 -1,-1 m 135,1 v 5 l -4,-3 -4,2 3,-5 5,1 m -181,0 -2,2 v -2 h 2 m 5,0 -1,1 1,-1 m 51,0.333 c 0.773,0 0.16,0.498 -0.333,0.334 l 0.333,-0.334 m 91,-0.333 -1,1 1,-1 m 4,0 2,4 h 18 v 3 l 9,-1 -4,5 6,-3 h 1 c -1.6,11.2 -6.03,17.802 -13,27 l -7,-3 v -2 l 3,-1 v -1 l -10,-1 3,1 5,5 c 3.402,4.578 7.511,6.695 13,8 v 4 h -1 l -2,-1 h -1 l -1,-3 -12,-3 5,6 c -4.851,-2.517 -17.958,-11.797 -13,-18 v -1 l -1,-14 7,1 v -1 l -7,-1 v -10 m -82,1 3,2 v 1 c -2.348,-0.294 -3.951,-0.493 -3,-3 m 216,0 1,1 -1,-1 m 27.667,0.333 0.666,0.334 -0.666,-0.334 m -254.667,0.667 1,2 v 1 h -2 v 1 4 h -1 l -3,-6 h 2 l -1,-2 h 4 m 88,0 2,4 -2,-4 m 82,0 v 1 h 3 l -3,-1 m 81.667,0.333 0.666,0.334 -0.666,-0.334 m -310.667,1.667 -1,1 1,-1 m 159,0 1,1 -1,-1 m -228.000005,1 6,7 -8,-3 2,-4 m 85.000005,3 1,3 11,-5 -12,2 m 29,-3 1,1 -1,-1 m 181,0 -1,1 1,-1 m -169.333,1.333 0.666,0.334 -0.666,-0.334 m 9.666,0.334 0.334,0.666 -0.334,-0.666 m 87.667,-0.667 1,1 -1,-1 m 23,0 -1,2 h 2 l -1,-2 m 62,0 -1,1 1,-1 m -79,1 v 3 h 1 l -1,-3 m -12,4 -5,-2 5,2 m 21,-1 v 1 l 6,-2 -6,1 m 85,-2 -1,2 h -1 l -1,-2 h 3 m 26,0 2,3 -2,-3 m 6,1 v 1 l 5,-1 h -5 m -230,1 -2,2 2,2 -5,8 2,-13 3,1 m -55,0 1,1 -1,-1 m 294,3 25,7 -4,-4 1,-5 -1,-1 -21,3 m -135,-2 -1,3 v 1 l 2,3 -2,-1 v 1 l 6,1 v -1 h -3 l -2,-7 m 96,1 v 6 l 2,-2 c 2.51,6.887 2.863,12.836 -6,12 v 1 l 5,3 -4,-1 1,4 -7,-2 -5,3 -11,-4 h -1 -8 c 5.682,-3.411 19.524,-2.281 26,-1 v -1 l -7,-1 c 0.988,-9.657 3.304,-20.449 15,-17 m 59,-1 -1,1 1,-1 m -208,1 v 3 l -2,-1 v -1 l 2,-1 m 132,0 -1,1 1,-1 m 8,0 3,2 v -1 l -3,-1 m 27,0 -1,1 1,-1 m 30,0 -1,1 1,-1 m -72,1 -1,1 1,-1 m -242,1 -2,2 v -2 h 2 m 73,0 -1,2 1,-2 m 46,0 -1,1 1,-1 m 36.667,1.667 -0.334,0.666 0.334,-0.666 m 79.333,-0.667 1,3 -1,-3 m 25,0 c 0.844,4.301 1.246,8.372 -4,9 v 4 l 3,2 3,-2 -1,-2 c 4.193,-3.003 1.928,-7.743 -1,-11 m -341.000005,1 -1,1 1,-1 m 73.000005,1 v 1 l -3,4 10,-2 -1,4 8,3 -2,2 -10,-2 v 1 l 9,4 -23.000005,-6 c 3.085305,0 4.279205,-3.115 4.000005,-6 l 8,-3 m 18,3 c -2.649,-0.53 -3.607,-0.428 -3,2 l -2,-5 5,3 m 144,-3 2,5 -4,1 v -6 h 2 m -31,1 c -1.043,2.668 -3.126,4.973 -4,1 l -2,2 c -1.353,-3.586 3.497,-2.782 6,-3 m 41,0 v 2 h 2 l -2,-2 m 56,0 3,1 -1,6 h -1 l -1,-7 m 47,0 1,4 h 1 l -2,-4 m -133,1 c 2.105,8.33 -0.712,33.673 -10,37 v -4 h -10 v -17 l 6,-2 7,-12 h 1 l -2,18 h 1 l 7,-20 m -132,1 -1,1 1,-1 m 166,0 v 1 l 4,1 v -1 l -4,-1 m 135,0 -1,1 1,-1 m -69,1 -1,3 1,-3 m 64,0 6,3 v 1 l -6,-4 m 7,0 7,1 c -2.899,2.543 -4.711,1.744 -8,0 l 1,-1 m -140.667,1.667 0.334,0.666 -0.334,-0.666 M 437.10097,649 v 2 h -3 v -2 h 3 m -57,1 -1,1 1,-1 m -200,1 -1,1 1,-1 m 56,0 -1,2 h -1 l -1,-2 h 3 m 215.333,0.667 0.334,0.666 -0.334,-0.666 m -260.333,0.333 -1,1 1,-1 m 47,0 -1,1 1,-1 m 50,0 1,1 -1,-1 m 91,0 -1,1 1,-1 m 7,0 1,1 -1,-1 m -209,1 -1,1 1,-1 m 94,0 1,8 h -2 l 1,-8 m 182,17 -18,-7 h -1 l -10,-5 -1,3 -12,-6 h -1 v 4 h -6 -1 l -5,-2 c 3.421,-4.513 9.185,-2.835 14.17,-2.924 12.502,-0.221 34.091,4.035 40.83,15.924 m -75,-16 -1,1 1,-1 m 7,0 1,1 -1,-1 m -100,2 -3,1 c 1.452,1.904 3.445,1.567 3,-1 m 111,0 -2,3 2,-3 m -288,1 -1,1 1,-1 m 285,0 -1,1 1,-1 m -281,2 v 1 h -4 l 4,-1 m 260,-1 2,2 -2,-2 m 79,0 1,1 -1,-1 m -217,1 -1,1 1,-1 m -119,1 2,1 v 1 l -2,-2 m 170.333,0.667 0.334,0.666 -0.334,-0.666 m 58.334,0 -0.334,0.666 0.334,-0.666 m 9.333,0.333 -1,1 1,-1 m -91,1 9,3 -4,7 6,-1 -2,10 h -2 l -7,-19 m 25,0 2,3 -2,-3 m 93,0 -1,1 1,-1 m -68,1 -1,1 1,-1 m 62,0 -1,1 1,-1 m 3,0 -1,1 1,-1 m 21,0 -1,1 1,-1 m 3,0 -1,1 1,-1 m 14,0 -1,1 1,-1 m -182,1 v 1 h 4 l -4,-1 m 121,0.333 c 0.773,0 0.16,0.498 -0.333,0.334 l 0.333,-0.334 m 9,-0.333 v 1 h -6 l 6,-1 m 2,0 -1,1 1,-1 m 7,0 v 1 h -4 l 4,-1 m -133.667,1.667 0.334,0.666 -0.334,-0.666 m -59.333,0.333 v 2 h -2 v -2 h 2 m 57,1 1,1 -1,-1 m 202,0 -1,1 1,-1 m -204,1 1,1 -1,-1 m 5,1 1,9 h 1 l -2,-9 m 70,0 -1,1 1,-1 m -131,1 -1,2 h -1 l -1,-2 h 3 m 269,2 -3,-2 3,2 m -276,-1 -1,1 1,-1 m 63,0 1,1 -1,-1 m 3,0 1,1 -1,-1 m 71,0 -1,1 1,-1 m -265.000005,1 -1,1 1,-1 m 10,0 -1,1 1,-1 m 123.000005,1 -3,2 3,-2 m -8,1.333 c 0.773,0 0.16,0.498 -0.333,0.334 l 0.333,-0.334 m 6,1.667 v 2 h -2 l 2,-2 m 281,0 2,4 -2,-4 m -290,1 -1,1 1,-1 m 144,2 v 1 c -5.069,0.442 -10.028,3.337 -13,-2 l 13,1 m -137,0 1,1 v 1 l -1,1 h -1 l -1,-1 v -1 l 2,-1 m 67,2 1,1 v 2 l -6,2 v -5 h 5 m 176,0 1,4 2,-2 1,2 h 1 c 0.592,-2.96 4.492,-2.542 5,0 l 4,-1 h 1 c 0.802,2.478 2.546,4.808 5,3 l 1,3 3,-1 4,2 v 3 l 2,-1 v 2 h 1 l 1,-1 4,3 5,11 -6,-2 -6,-7 v 2 h -1 c -0.653,-1.96 -1,-2.554 -1,0 h -1 l -2,-2 h -1 l -3,-3 -3,-2 -1,-3 -2,2 -1,-3 -4,1 h -1 l -4,-3 -3,-1 -1,-6 m 2,0 -1,1 1,-1 m -146,1 -2,15 6,-4 1,1 -8,7 -2,-16 5,-3 m 8,0 -1,1 1,-1 m 131,0 1,3 -1,-3 m 3,0 v 3 h -1 l 1,-3 m -242,1 v 2 h -2 v -2 h 2 m 237,0 -2,2 2,-2 m -246,1 c 1.42,6.537 -2.472,14.01 -9,16 l 9,-16 m 4,0 v 2 h -2 l 2,-2 m 235,0 -1,1 1,-1 m -122,1 -1,1 1,-1 m 16,0 -1,1 1,-1 m 32,0.333 c 0.773,0 0.16,0.498 -0.333,0.334 l 0.333,-0.334 m 93,-0.333 1,1 -1,-1 m 6,0 1,1 -1,-1 m 6,0 -1,1 1,-1 m -262,1 -3,2 3,-2 m 172,0 v 2 l -2,-2 h 2 m -103,1 1,3 -3,-2 2,-1 m 91,0.333 c 0.773,0 0.16,0.498 -0.333,0.334 l 0.333,-0.334 m 97,-0.333 -1,2 1,-2 m -184,1 1,2 h -2 l 1,-2 m 105,0 -1,1 1,-1 m -67,1 3,1 v 1 l -4,-1 1,-1 m 47,0 1,2 h -2 l 1,-2 m -40,3 -3,-2 3,2 m 141,-2 1,1 -1,-1 m -190,1 v 1 h -4 l 4,-1 m 40,0 3,3 -4,-1 v -1 l 1,-1 m 142,0 -1,1 1,-1 m -183,5 -3,-2 3,2 m 90,-1 1,5 -5,-5 h 4 m 8,0 -1,1 1,-1 m 114,0 -1,1 1,-1 m -209,2 v 1 l -3,2 -4,-2 7,-1 m 2,0 -1,1 1,-1 m 36,1 -1,1 1,-1 m 3,0 -1,1 1,-1 m -44,3 v 1 h -5 l 5,-1 m 97,2 -5,-3 5,3 m -184,-2 1,2 h -2 l 1,-2 m 176,0 2,3 -2,-3 m -58,1 -1,1 1,-1 m -33,2 5,1 v 1 c -2.051,0.329 -6.137,0.855 -5,-2 m -85,2 v 1 l -8,-1 h 8 m -9,2 1,4 -8,1 3,5 c -5.019,2.783 -8.62,2.837 -14,1 v -1 h 12 l -3,-5 8,-1 -2,-3 3,-1 m 97,0 c -2.15,2.075 -3.205,2.56 -5,0 h 5 m 90,0 -2,2 v -2 h 2 m 7,0 v 1 l -5,1 5,-2 m 6,0 -4,3 4,-3 m 68,7 h 1 c 2.982,-4.595 11.123,-2.952 15,0 3.97,-2.673 12.289,-2.182 15,2 l -18,-2 c 8.713,6.601 22.877,-0.443 31,9 l -1,2 -11,1 v -1 l 4,-3 -27,-5 v 1 l 33,12 -1,3 -15,-1 v 4 l -4,-1 -2,3 c 0.197,-1.649 0.312,-6.54 -2,-4 -11.497,-6.024 -25.844,-6.769 -35,-17 l 11,-3 -3,-2 c 3.464,-2.182 7.751,-2.416 9,2 m -25,-3 -3,4 3,-4 m 6,0 -2,3 -1,-1 3,-2 m 8,3 h -5 c -1.157,-3.446 4.176,-3.843 5,0 m 6,0 h 3 l -1,-2 -2,2 m -13,-1 -1,1 1,-1 m 22,0 1,1 -1,-1 m 5,0 2,2 v -2 h -2 m 3,0 1,1 -1,-1 m 27,1 v 1 l -3,2 -4,-2 7,-1 m -208,2 v 1 h -7 l 7,-1 m 124,-1 v 3 h -1 l 1,-3 m -249.333,4.667 -0.334,0.666 0.334,-0.666 m 6.333,-0.667 6,6 h -5 l -1,-6 m 212,1 v 1 l -4,1 4,-2 m 7,0 v 1 l -4,1 4,-2 m -223,1 -1,1 1,-1 m 118,0 -1,1 1,-1 m -106,1 -1,1 1,-1 m -7,7 c -9.945,4.315 -10.9,9.75 -22,5 v 1 l 7,4 v 1 c -6.0506,3.659 -10.519105,2.404 -15.000005,-3 9.823305,-4.534 20.423005,-20.362 30.000005,-8 m 205,-5 v 2 h -3 v -2 h 3 m -92.333,1.667 -0.334,0.666 0.334,-0.666 m 41.333,0.333 -1,1 1,-1 m 5,2 v 1 l -4,1 v -1 l 4,-1 m 51,0 -1,2 h -1 l -1,-2 h 3 m -56,1 v 2 l -2,-2 h 2 m 151,0 1,1 -1,-1 m -144,1 4,4 -4,-4 m 110,3 v 1 l -6,2 v 1 c 3.651,1.333 11.66,1.884 9,7 l 15,0.588 17,10.177 12,7.235 -14,-5 v 1 l 5,2 v 1 l -29,-9 1,-3 c -9.766,-2.011 -21.395,-4.181 -28,-12 6.169,-3.218 11.023,-5.113 18,-4 m -98,4 -4,1 v -1 l 2,-1 -5,-2 c 3.427,-1.298 5.176,0.025 7,3 m -168,-3 1,1 -1,-1 m 302,0 -1,1 1,-1 m -354.000005,4 9,7 c -0.5502,-5.337 -3.2495,-11.326 -9,-7 m 49.000005,-1 1,1 -1,-1 m 111,0 -1,1 1,-1 m 54,1 -1,1 1,-1 m -229.000005,1 3,12 c 2.8001,-4.663 2.4126,-10.008 -3,-12 m 26,0 v 2 l 2,-2 h -2 m 211.000005,0 -1,1 1,-1 m -248.000005,1 -2,2 v -2 h 2 m 375.000005,0 3,3 -4,-2 1,-1 m -307,1 1,1 -1,-1 m 176,0 -1,1 1,-1 m 89,0 1,1 -1,-1 m -116,1 3,1 -2,4 -1,-5 m -219.000005,1 -1,1 1,-1 m 31,4 3,-3 -3,3 m 36.000005,-3 1,1 -1,-1 m -43.000005,1 2,5 h -3 v 3 l 5,1 v -1 l -3,-2 h 5 l -6,-6 m 210.000005,0.333 c 0.773,0 0.16,0.498 -0.333,0.334 l 0.333,-0.334 m 147,0 c 0.773,0 0.16,0.498 -0.333,0.334 l 0.333,-0.334 m -318,0.667 1,1 -1,-1 m 257,1.333 0.333,0.334 c -0.493,0.164 -1.106,-0.334 -0.333,-0.334 M 92.100965,749 c -2.3442,4.595 -6.853,8.215 -12,9 v 1 c 5.4512,0.624 16.0918,-5.333 19,-10 h -7 m 183.000005,3 2,3 -2,-3 m -224.000005,1 c -2.1879,7.472 0.7656,13.227 9,13 l -5,-10 16,7 v -1 l -5,-3 v -1 -1 l 2,-2 -9,1 -8,-3 m 26,0 5,3 -5,-3 m 27.000005,0 1,1 -1,-1 m 168,0 2,3 -2,-3 m 13,0 6,8 -6,-8 m -50.333,1.667 -0.334,0.666 0.334,-0.666 m -134.667,0.333 1,1 -1,-1 m 178.667,0.667 -0.334,0.666 0.334,-0.666 m -2.667,0.333 1,2 -1,-2 m -180.000005,2 1,1 -1,-1 m 258.000005,0.333 0.333,0.334 c -0.493,0.164 -1.106,-0.334 -0.333,-0.334 m 3,0.667 c 8.8,2.013 20.191,4.942 29,2 l 4,2 -1,-3 c 14.162,-3.894 24.724,7.088 37,11 v 1 l -22,-9 5.225,13.985 15.775,17.015 -6,-3 c -3.845,-4.445 -8.414,-8.102 -11.779,-13 -4.277,-6.225 -4.4,-12.281 -12.221,-15 v 4 h -12 v 1 c 10.37,1.478 15.508,7.687 21,16 l -48,-24 1,-1 m -283.333305,1.333 0.6666,0.334 -0.6666,-0.334 M 284.10097,760 l 2,3 -2,-3 m 11,0 v 2 h -2 l 2,-2 m -236.000005,1 v 1 l 5,1 -5,-2 m 239.000005,0 -1,1 1,-1 m 5,0 -1,1 1,-1 m 140,0 -1,1 1,-1 m -370.000005,4 v 1 l 6,-3 -6,2 m 215.000005,-2 -1,1 1,-1 m 11,0 -1,1 1,-1 m 132,1 3,3 -3,-3 m -141,1 -1,1 1,-1 m 3.667,0.667 -0.334,0.666 0.334,-0.666 m 3.333,-0.667 v 2 h -2 v -2 h 2 m -235.000005,1 v 1 h 3 l -3,-1 m 9,0 -1,2 1,-2 m 229.000005,0 -1,1 1,-1 m 82,0 1,1 -1,-1 m 52,2 3,1 v 1 l -4,-1 1,-1 m -372.000005,3 v 1 l 6,-2 -6,1 m 349.000005,32 c -16.576,-5.439 -27.124,-15.235 -41,-25 l 29,33 -6,-4 4,21 h -1 l -6,-10 c 0.386,-6.707 -3.908,-8.611 -6.782,-14.015 -6.645,-12.496 -10.981,-19.603 -23.218,-26.985 l 13,12 c -11.652,-5.947 -18.846,-17.999 -32,-18 5.274,-3.995 13.18,-0.895 19,0.746 13.704,3.864 27.706,12.672 39,21.127 4.098,3.068 9.466,5.629 12,10.127 m -114,-32.667 0.333,0.334 c -0.493,0.164 -1.106,-0.334 -0.333,-0.334 M 60.100965,772 l -1,2 1,-2 m 21,0.333 0.3333,0.334 c -0.4935,0.164 -1.1067,-0.334 -0.3333,-0.334 M 299.10097,772 l -1,1 1,-1 m -244.000005,2 -1,2 h 2 l -1,-2 m 2,0 1,1 -1,-1 m 20,0 -1,1 1,-1 m -9,1 -1,1 1,-1 m 276.000005,0.333 c 0.773,0 0.16,0.498 -0.333,0.334 l 0.333,-0.334 M 38.100965,776 v 1 h 4 l -4,-1 m 35,0 -1,1 1,-1 m 277.000005,0.333 0.333,0.334 c -0.493,0.164 -1.106,-0.334 -0.333,-0.334 m 9,-0.333 1,1 -1,-1 m -315.333305,1.333 0.6666,0.334 -0.6666,-0.334 m 4.3333,2.667 4,-2 -4,2 m 277.000005,-3 c 9.169,15.227 32.567,27.88 48,36 l -19,-19 c 7.778,4.047 20.561,9.84 20,20 l 15,8 c -14.241,0.836 -26.754,-17.627 -40,-14 l -6,-8 5,9 c -11.114,-5.486 -35.982,-15.726 -23,-32 m -290.000005,1 1,1 -1,-1 m 33,0 -1,1 1,-1 m -9.3333,1.667 -0.3334,0.666 0.3334,-0.666 M 368.10097,779 l 1,1 -1,-1 m -329.000005,7 7,-4 -7,4 m 20,-3.667 c 0.7734,0 0.1602,0.498 -0.3333,0.334 l 0.3333,-0.334 M 380.10097,783 c 3.984,5.608 10.593,12.784 18,11 v -1 l -18,-10 m -325.333305,1.667 -0.3334,0.666 0.3334,-0.666 M 147.10097,784 l -1,1 1,-1 m -98.000005,1.333 0.3333,0.334 c -0.4935,0.164 -1.1067,-0.334 -0.3333,-0.334 m -12,0.667 -2,3 2,-3 m 14,1 -2,2 2,-2 m -11,5 2,3 -2,-3 m -13,1 -1,1 1,-1 m 8,3 2,1 v 1 l -2,-2 m -4,5 -1,1 1,-1 m 2,1 -1,1 1,-1 m 354.000005,43 -28,-7 v -1 l 14,-1 -56,-28 1,-3 c 15.325,4.102 30.09,14.151 44,21.691 8.538,4.629 19.423,10.09 25,18.309 m -359.000005,-39 2,1 v 1 l -2,-2 m 33,5 v 4 h 1 c 2.2541,-3.079 4.6686,-2.138 8,-1 -2.1268,5.587 -0.4488,8.908 2,14 -5.1682,-1.791 -14.8156,-5.258 -16,-11 h -7 v -1 l 10,-2 2,-3 m 340.000005,0 2,3 -2,-3 m -373.000005,2 v 1 h -3 l 3,-1 m 2,0 -1,1 1,-1 m -1,4 v 1 1 l -4,1 4,-3 m 1,6 -3,-2 3,2 m 257.000005,0 -1,1 1,-1 m -260.000005,1 -1,1 1,-1 m 5,3 -3,-2 3,2 m 298.000005,-0.667 0.333,0.334 c -0.493,0.164 -1.106,-0.334 -0.333,-0.334 m 4,0.667 -1,1 1,-1 m 4,0 v 1 h -3 l 3,-1 m -305.000005,1 1,3 h -1 v -3 m 41,0 -1,1 1,-1 m 233.000005,0 -1,1 1,-1 m -266.000005,2.333 c 0.7734,0 0.1602,0.498 -0.3333,0.334 l 0.3333,-0.334 m 4,-0.333 8,2 v 1 l -9,-2 1,-1 m 256.000005,0 v 1 h -3 l 3,-1 m 97,1 -1,1 1,-1 m -360.000005,1 -1,1 1,-1 m 4,1 -1,1 1,-1 m 5,1 -1,1 1,-1 m 17,0 -1,1 1,-1 m -12,1 -1,1 1,-1 m 9,0 -1,1 1,-1 m 5,0 -1,1 1,-1 m 5,0 -1,1 1,-1 m 5,1 -1,1 1,-1 m 323.667005,0.667 -0.334,0.666 0.334,-0.666 M 80.100965,837 l -1,1 1,-1 m 212.000005,0 v 2 h -2 v -2 h 2 m -210.333305,1.667 -0.3334,0.666 0.3334,-0.666 m 2.3333,0.333 -1,1 1,-1 m 2,1 2,1 v 1 l -2,-2 m 202.000005,1 -1,1 1,-1 m 43,0 1,1 -1,-1 m -240.000005,2 v 2 h -3 v -2 h 3 m 192.000005,2.333 0.333,0.334 c -0.493,0.164 -1.106,-0.334 -0.333,-0.334 m 101,-0.333 -1,1 1,-1 m -290.000005,3 -3,-2 3,2 m 295.000005,-2 -1,1 1,-1 m -44,1 -1,1 1,-1 m 46,0 -1,1 1,-1 m -132,1 -1,1 1,-1 m -167.000005,1 -1,1 z"
       id="path649" />
  </g>
</svg>
